<svg id="Layer_1" data-name="Layer 1" xmlns="http://www.w3.org/2000/svg" viewBox="0 0 64 64"><defs><style>.cls-1{fill:#fff;}.cls-2{fill:none;}.cls-3{fill:#c99f52;}.cls-4,.cls-5{fill:#8e1b07;}.cls-4{stroke:#c99f52;stroke-miterlimit:10;}</style></defs><rect class="cls-1" width="64" height="64"/><polygon points="23.07 7.52 23.36 8.24 22.41 8.24 22.45 8.35 26.04 8.35 25.7 7.5 22.18 7.5 22.19 7.52 23.07 7.52"/><polygon points="6.3 8.24 5.43 8.24 5.72 7.52 6.53 7.52 6.54 7.5 3.32 7.5 2.98 8.35 6.27 8.35 6.3 8.24"/><polygon points="5.61 10.46 4.61 10.46 4.98 9.49 2.52 9.49 2.13 10.47 5.61 10.47 5.61 10.46"/><polygon points="24.18 10.46 23.11 10.46 23.11 10.47 26.89 10.47 26.5 9.49 23.8 9.49 24.18 10.46"/><polygon points="3.71 12.96 4.15 11.79 1.6 11.79 1.13 12.96 4.26 12.96 3.71 12.96"/><polygon points="25.08 12.96 24.52 12.96 27.89 12.96 27.42 11.79 24.64 11.79 25.08 12.96"/><polygon points="2.66 15.88 3.19 14.48 0.52 14.48 -0.04 15.88 3.63 15.88 2.66 15.88"/><polygon points="26.13 15.88 25.18 15.88 29.06 15.88 28.5 14.48 25.6 14.48 26.13 15.88"/><polygon points="2.19 17.65 -0.75 17.65 -1.43 19.35 1.55 19.35 2.19 17.65"/><polygon points="27.23 19.35 30.45 19.35 29.77 17.65 26.6 17.65 27.23 19.35"/><polygon points="26.55 21.48 28.02 21.48 28.79 23.54 32.13 23.54 31.3 21.46 26.54 21.46 26.55 21.48"/><polygon points="0.77 21.48 2.17 21.48 2.18 21.46 -2.27 21.46 -3.11 23.54 -0.01 23.54 0.77 21.48"/><polygon points="30.55 28.65 28.79 28.66 28.8 28.72 34.21 28.72 33.16 26.11 29.61 26.11 30.55 28.65"/><polygon points="29.82 31.97 31.98 31.96 33.16 35.15 30.81 35.15 30.85 35.27 36.83 35.27 35.49 31.91 29.8 31.91 29.82 31.97"/><polygon points="32.19 39.62 34.35 39.62 35.72 43.35 33.36 43.36 33.51 43.84 40.25 43.84 38.46 39.38 32.12 39.38 32.19 39.62"/><polygon points="37.15 55.49 44.92 55.49 42.45 49.31 35.22 49.31 35.38 49.83 37.92 49.82 39.69 54.65 36.89 54.66 37.15 55.49"/><polygon points="37.52 56.88 45 56.88 45 55.55 37.11 55.55 37.52 56.88"/><polygon points="40.33 45.3 40.33 43.89 33.47 43.89 33.91 45.3 40.33 45.3"/><polygon points="31.19 36.55 36.9 36.55 36.9 35.34 30.81 35.34 31.19 36.55"/><polygon points="29.04 29.66 34.28 29.66 34.28 28.77 28.77 28.77 29.04 29.66"/><polygon points="1.57 23.6 -3.19 23.6 -3.19 24.43 1.31 24.43 1.57 23.6"/><polygon points="27.41 24.43 32.21 24.43 32.21 23.6 27.15 23.6 27.41 24.43"/><polygon points="26.07 20.14 30.53 20.14 30.53 19.4 25.84 19.4 26.07 20.14"/><polygon points="2.88 19.4 -1.51 19.4 -1.51 20.14 2.65 20.14 2.88 19.4"/><polygon points="3.96 15.94 -0.12 15.94 -0.12 16.63 3.74 16.63 3.96 15.94"/><polygon points="24.98 16.63 29.14 16.63 29.14 15.94 24.76 15.94 24.98 16.63"/><polygon points="4.87 13.03 1.05 13.03 1.05 13.68 4.66 13.68 4.87 13.03"/><polygon points="24.05 13.68 27.97 13.68 27.97 13.03 23.85 13.03 24.05 13.68"/><polygon points="6.31 8.4 2.9 8.4 2.9 8.99 6.13 8.99 6.31 8.4"/><polygon points="5.64 10.54 2.04 10.54 2.04 11.16 5.45 11.16 5.64 10.54"/><polygon points="23.27 11.16 26.98 11.16 26.98 10.54 23.08 10.54 23.27 11.16"/><polygon points="19.92 8.25 18.74 8.25 18.59 7.53 19.7 7.53 19.7 7.5 9.02 7.5 9.01 7.53 10.19 7.53 10.05 8.25 8.8 8.25 8.77 8.35 19.95 8.35 19.92 8.25"/><polygon points="8.15 10.47 8.15 10.47 8.41 10.47 8.15 10.47"/><polygon points="9.56 10.47 19.23 10.47 19.03 9.49 9.76 9.49 9.56 10.47"/><polygon points="8.94 12.96 19.84 12.96 19.6 11.79 9.18 11.79 8.94 12.96"/><polygon points="8.52 14.48 8.23 15.88 20.55 15.88 20.27 14.48 8.52 14.48"/><polygon points="7.48 19.35 21.3 19.35 20.95 17.65 7.83 17.65 7.48 19.35"/><polygon points="4.93 21.49 6.88 21.49 6.45 23.54 22.34 23.54 21.91 21.49 23.78 21.49 23.77 21.46 4.94 21.46 4.93 21.49"/><polygon points="2.82 28.72 25.9 28.72 25.88 28.66 23.42 28.67 22.87 26.11 5.92 26.11 5.37 28.67 2.84 28.66 2.82 28.72"/><polygon points="0.94 35.17 0.91 35.28 27.81 35.28 27.78 35.18 24.96 35.18 24.24 32 26.85 31.99 26.83 31.92 1.89 31.92 1.87 31.99 4.54 32 3.83 35.18 0.94 35.17"/><polygon points="-1.47 43.37 -1.6 43.84 30.3 43.84 30.16 43.37 26.65 43.38 25.88 39.64 29.07 39.63 29 39.38 -0.3 39.38 -0.38 39.63 2.88 39.64 2.11 43.38 -1.47 43.37"/><polygon points="-4.77 54.67 -5.01 55.49 33.7 55.49 33.46 54.67 29.53 54.68 28.54 49.85 32.05 49.84 31.9 49.31 -3.2 49.31 -3.36 49.84 0.23 49.85 -0.77 54.68 -4.77 54.67"/><polygon points="-5.08 55.55 -5.47 56.88 34.16 56.88 33.77 55.55 -5.08 55.55"/><polygon points="-2.08 45.3 30.78 45.3 30.37 43.89 -1.68 43.89 -2.08 45.3"/><polygon points="0.48 36.55 28.24 36.55 27.88 35.34 0.84 35.34 0.48 36.55"/><polygon points="2.49 29.66 26.23 29.66 25.97 28.77 2.75 28.77 2.49 29.66"/><polygon points="4.02 24.43 24.7 24.43 24.46 23.6 4.26 23.6 4.02 24.43"/><polygon points="5.27 20.14 23.45 20.14 23.23 19.4 5.49 19.4 5.27 20.14"/><polygon points="6.3 16.63 22.42 16.63 22.22 15.94 6.5 15.94 6.3 16.63"/><polygon points="21.37 13.03 7.35 13.03 7.16 13.68 21.56 13.68 21.37 13.03"/><polygon points="20.02 8.4 8.7 8.4 8.53 8.99 20.19 8.99 20.02 8.4"/><polygon points="20.64 10.54 8.08 10.54 7.9 11.16 20.82 11.16 20.64 10.54"/><path class="cls-1" d="M25.65,7.56l.3.75H23.42l-.06-.15-.24-.6h2.53m.07-.1H22.1l0,.13H23l.24.61h-.93l.07.21h3.71l-.39-1Z"/><path class="cls-1" d="M5.64,7.56l-.24.6-.06.15H3.05l.3-.75H5.64m1-.1H3.28l-.39,1H6.3l.06-.21H5.5l.24-.61h.82Z"/><path class="cls-1" d="M4.89,9.56l-.32.82v0H2.2l.35-.87H4.89M6,9.45H2.48L2,10.53h3.6l0-.11h-1L5,9.53H6Z"/><path class="cls-1" d="M26.45,9.56l.35.87H24.21l0,0-.32-.82h2.58m.07-.11h-3.8l0,.08h1l.35.89H23l0,.11H27l-.44-1.08Z"/><polygon points="5.26 11.75 4.22 11.75 5.26 11.76 5.26 11.75"/><polygon class="cls-1" points="5.26 11.75 4.22 11.75 5.26 11.76 5.26 11.75"/><path class="cls-1" d="M4.06,11.86l-.39,1v0H1.2l.42-1.06H4.06m.16-.11H1.55L1,13H4.86l0-.1H3.77l.45-1.17Z"/><path class="cls-1" d="M27.38,11.86l.42,1.06H25.1v0l-.39-1h2.68m.07-.11h-2.9L25,12.92H23.8l0,.1H28l-.51-1.27Z"/><polygon points="24.55 11.75 23.44 11.75 23.44 11.76 24.55 11.75"/><polygon class="cls-1" points="24.55 11.75 23.44 11.75 23.44 11.76 24.55 11.75"/><path class="cls-1" d="M3.1,14.54,2.63,15.8l0,0H0l.52-1.3H3.1m.15-.1H.48L-.13,16H4l0-.11H2.73Z"/><path class="cls-1" d="M28.45,14.54l.52,1.3H26.15v0l-.48-1.26h2.79m.07-.1h-3l.53,1.4H24.72l0,.11h4.38Z"/><path class="cls-1" d="M2.1,17.72l-.59,1.57v0H-1.36l.64-1.59H2.1m1.33-.11H-.8l-.72,1.81H2.86l0-.09H1.61l.64-1.71H3.43Z"/><path class="cls-1" d="M29.72,17.72l.64,1.59h-3.1v0l-.59-1.57h3.06m.07-.11H26.51l.64,1.71H25.8l0,.09h4.69l-.73-1.81Z"/><path class="cls-1" d="M31.25,21.52l.79,2H28.81l-.73-2h3.17m.07-.1H26.46l0,.12H28l.74,2H27.12l0,.08H32.2l-.88-2.19Z"/><path class="cls-1" d="M.68,21.52l-.73,2H-3l.79-2H.68m1.56-.1H-2.32l-.88,2.19H1.56l0-.08H.05l.74-2H2.2l0-.12Z"/><path class="cls-1" d="M-.91,26.17l-.89,2.4,0,.11H-5.12l1-2.51h3.2m1.7-.11h-5l-1.09,2.72H-.06l0-.17H-1.7l.94-2.53H.78Z"/><path class="cls-1" d="M33.11,26.17l1,2.51H30.6l0-.11-.89-2.4h3.44m.07-.11H27.91v0h1.61l.94,2.53H28.7l.05.17h5.52l-1.09-2.72Z"/><path class="cls-1" d="M35.44,32l1.3,3.25H33.22l0-.14L32,32h3.4m.07-.11H29.72l.05.16h2.17l1.13,3.09H30.73l.07.23h6.1l-1.39-3.47Z"/><path class="cls-1" d="M38.43,39.43l1.74,4.36H33.55l-.12-.38H35.8l-.06-.15-1.33-3.63,0-.07H32.23l0-.14h6.24m.07-.1H32.05l.1.35h2.16l1.34,3.63H33.29l.18.58h6.86L38.5,39.33Z"/><path class="cls-1" d="M42.41,49.37l2.43,6.07H37.19L37,54.71h2.8l0-.14L38,49.84l0-.07H35.42l-.13-.41h7.12m.07-.11H35.15l.19.62h2.54l1.73,4.73H36.82l.29.93H45l-2.52-6.28Z"/><polygon points="27.96 13.03 27.96 13.03 27.96 13.04 27.96 13.03"/><polygon points="1.04 13.03 1.04 13.04 1.04 13.03 1.04 13.03"/><polygon points="23.84 13.04 27.96 13.04 27.96 13.03 23.84 13.03 23.84 13.04"/><polygon points="4.86 13.03 1.04 13.03 1.04 13.04 4.86 13.04 4.86 13.03"/><polygon points="22.58 9.01 26.11 9.01 26.11 8.41 22.4 8.41 22.58 9.01"/><polygon points="2.03 10.53 2.03 10.55 2.04 10.53 2.03 10.53"/><polygon points="26.97 10.53 26.96 10.53 26.97 10.55 26.97 10.53"/><polygon points="5.64 10.53 2.04 10.53 2.03 10.55 5.63 10.55 5.64 10.53"/><polygon points="23.06 10.55 26.97 10.55 26.96 10.53 23.06 10.53 23.06 10.55"/><polygon class="cls-2" points="24.69 24.45 4.01 24.45 3.53 26.06 25.16 26.06 24.69 24.45"/><polygon class="cls-2" points="28.23 36.55 0.47 36.55 -0.34 39.33 29.04 39.33 28.23 36.55"/><polygon class="cls-2" points="23.43 20.15 5.26 20.15 4.89 21.42 23.8 21.42 23.43 20.15"/><polygon class="cls-2" points="26.21 29.67 2.48 29.67 1.84 31.87 26.86 31.87 26.21 29.67"/><polygon class="cls-2" points="30.78 45.3 -2.08 45.3 -3.24 49.26 31.94 49.26 30.78 45.3"/><polygon class="cls-2" points="20.18 9.01 8.52 9.01 8.39 9.45 20.31 9.45 20.18 9.01"/><polygon class="cls-2" points="8.46 14.44 20.3 14.44 20.29 14.42 21.76 14.41 21.55 13.69 7.15 13.69 6.94 14.41 8.47 14.42 8.46 14.44"/><polygon class="cls-2" points="20.81 11.17 7.89 11.17 7.71 11.75 20.98 11.75 20.81 11.17"/><polygon class="cls-2" points="22.41 16.64 6.29 16.64 6 17.61 22.69 17.61 22.41 16.64"/><path class="cls-1" d="M18.53,7.56v.06l.13.61v.08h-8.6V8.23l.13-.61V7.56h8.3m1.19-.11H9l0,.14h1.19L10,8.21H8.75l-.06.21H20l-.06-.21H18.77l-.12-.62h1.11l0-.14Z"/><path class="cls-1" d="M19,9.56h0l.18.87H9.61l.18-.87H19m1.34-.11H8.39l0,.09H9.69l-.19.89H8.1l0,.1H20.62l0-.1H19.26l-.18-.89h1.25l0-.09Z"/><path class="cls-1" d="M19.55,11.86l.22,1.06H9l.21-1.06H19.55M21,11.75H9.13l-.24,1.16H7.37l0,.09h14l0-.09H19.88l-.24-1.16H21Z"/><path class="cls-1" d="M20.21,14.54l.27,1.3H8.29l.26-1.3H20.21m.09-.1H8.47l-.3,1.42H6.52l0,.1H22.21l0-.1H20.59l-.29-1.42Z"/><path class="cls-1" d="M20.9,17.72l.33,1.59H7.54l.32-1.59h13m1.79-.11H6v0H7.77l-.35,1.72H5.5l0,.08H23.22l0-.08H21.34L21,17.63H22.7v0Z"/><path class="cls-1" d="M21.85,21.52v.06l.4,1.92H6.51l.39-1.92v-.06H21.85m1.95-.1H4.89l0,.13h2l-.41,2H4.27l0,.07H24.44l0-.07H22.37l-.4-2h1.87l0-.13Z"/><path class="cls-1" d="M22.81,26.17l.54,2.48v0H5.41v0L6,26.17H22.81m2.35-.11H3.53v0H5.85l-.54,2.53H2.79l0,.16H26l0-.16H23.45l-.54-2.53h2.26v0Z"/><path class="cls-1" d="M24.17,32l0,.09.7,3.08v.08h-21l0-.08.69-3.08,0-.09H24.17M1,35.23H1m26.76,0h0m-.87-3.36h-25L1.79,32H4.47l-.7,3.08H.89l-.06.22h27l-.06-.22H25l-.69-3.08h2.61l-.05-.17Z"/><path class="cls-1" d="M29,39.43l0,.15H25.82l0,.13.75,3.63,0,.08h3.51l.11.37H-1.53l.1-.37H2.15l0-.08.75-3.63,0-.13H-.31l0-.15H29m.08-.1H-.34l-.11.36H2.82l-.75,3.63H-1.51l-.17.57H30.37l-.17-.57H26.69l-.75-3.63h3.2l-.1-.36Z"/><path class="cls-1" d="M31.86,49.37l.12.42H28.47l0,.13,1,4.72,0,.09h.09l3.84,0,.21.72H-4.94l.21-.72,3.92,0h.08l0-.09,1-4.72,0-.13H-3.29l.13-.42h35m.08-.11H-3.24l-.19.63H.16l-1,4.73h-4l-.27.92H33.77l-.27-.92H29.58l-1-4.73h3.52l-.18-.63Z"/><polygon points="21.35 13.03 7.34 13.03 7.34 13.04 21.36 13.04 21.35 13.03"/><polygon points="20.62 10.53 8.07 10.53 8.06 10.55 20.63 10.55 20.62 10.53"/><polygon points="7.71 11.75 6.87 11.75 6.87 11.76 7.71 11.76 7.71 11.75"/><polygon points="20.98 11.76 21.83 11.76 21.83 11.75 20.98 11.75 20.98 11.76"/><path class="cls-1" d="M1.44,41a.53.53,0,0,0-.52.41.33.33,0,0,0,.33.42.57.57,0,0,0,.53-.42A.32.32,0,0,0,1.44,41Z"/><path class="cls-1" d="M-.11,40.23a.57.57,0,0,0-.53.39A.31.31,0,0,0-.32,41a.56.56,0,0,0,.53-.4A.31.31,0,0,0-.11,40.23Z"/><path class="cls-1" d="M2.93,33.19a.5.5,0,0,0-.47.35.29.29,0,0,0,.31.35.49.49,0,0,0,.46-.35A.28.28,0,0,0,2.93,33.19Z"/><path class="cls-1" d="M1.47,34.25a.28.28,0,0,0-.22-.36L1,34.61a.51.51,0,0,0,.43-.36Z"/><path class="cls-1" d="M1.18,33.89a.53.53,0,0,0-.49.36.28.28,0,0,0,.3.36H1l.21-.72Z"/><path class="cls-1" d="M1.82,32.84a.25.25,0,0,0-.17-.32l-.19.65A.47.47,0,0,0,1.82,32.84Z"/><path class="cls-1" d="M1.53,32.5a.5.5,0,0,0-.47.34c-.05.19.08.34.3.34h.1l.19-.65-.12,0Z"/><path class="cls-1" d="M-.17,27a.47.47,0,0,0-.43.29c-.05.16.06.29.25.29a.46.46,0,0,0,.43-.29C.13,27.15,0,27-.17,27Z"/><path class="cls-1" d="M4.41,27a.41.41,0,0,0-.4.29c0,.16.08.29.27.29a.43.43,0,0,0,.41-.29c0-.16-.09-.29-.28-.29Z"/><path class="cls-1" d="M3.15,27.91a.23.23,0,0,0-.08-.24l-.15.49a.43.43,0,0,0,.23-.25Z"/><path class="cls-1" d="M2.88,27.61a.44.44,0,0,0-.42.29c0,.17.07.3.27.31a.45.45,0,0,0,.19-.05l.15-.49A.31.31,0,0,0,2.88,27.61Z"/><path class="cls-1" d="M3.43,26.75a.23.23,0,0,0,0-.2l-.12.4A.35.35,0,0,0,3.43,26.75Z"/><path class="cls-1" d="M3.17,26.47a.42.42,0,0,0-.4.27c0,.16.07.29.26.29A.41.41,0,0,0,3.27,27l.12-.4a.29.29,0,0,0-.22-.08Z"/><path class="cls-1" d="M1.7,22.28a.38.38,0,0,0-.36.23c0,.12.06.23.22.23a.43.43,0,0,0,.31-.14l.06-.18a.22.22,0,0,0-.23-.14Z"/><path class="cls-1" d="M1.93,22.51a.14.14,0,0,0,0-.09l-.06.18A.24.24,0,0,0,1.93,22.51Z"/><path class="cls-1" d="M5.9,22.29a.36.36,0,0,0-.35.23c0,.12.08.23.24.23a.35.35,0,0,0,.35-.23C6.17,22.39,6.06,22.29,5.9,22.29Z"/><path class="cls-1" d="M4.82,23c0-.13-.07-.24-.24-.24H4.5l-.13.45h.09A.36.36,0,0,0,4.82,23Z"/><path class="cls-1" d="M4.23,23a.18.18,0,0,0,.14.23l.13-.45a.35.35,0,0,0-.27.22Z"/><path class="cls-1" d="M5.05,22.07c0-.12-.08-.22-.24-.22h0l-.12.43H4.7a.36.36,0,0,0,.35-.22Z"/><path class="cls-1" d="M4.47,22.07c0,.1,0,.19.17.21l.12-.43A.33.33,0,0,0,4.47,22.07Z"/><path class="cls-1" d="M2.64,18.26a.35.35,0,0,0-.33.19c0,.11,0,.2.2.2a.37.37,0,0,0,.34-.2c0-.1-.06-.19-.21-.19Z"/><path class="cls-1" d="M6.64,18.27a.3.3,0,0,0-.31.19c0,.11.07.2.22.2a.33.33,0,0,0,.32-.2C6.89,18.36,6.79,18.27,6.64,18.27Z"/><path class="cls-1" d="M5.66,18.79l0,.14a.25.25,0,0,0,0-.07v-.07Z"/><path class="cls-1" d="M5.44,18.66a.33.33,0,0,0-.33.2c0,.11.07.2.22.2a.39.39,0,0,0,.29-.12l0-.14a.21.21,0,0,0-.22-.14Z"/><path class="cls-1" d="M5.53,18.27a.32.32,0,0,0,.32-.2c0-.1-.07-.19-.22-.19a.32.32,0,0,0-.31.19C5.29,18.18,5.39,18.27,5.53,18.27Z"/><polygon points="4.43 14.41 3.27 14.4 3.25 14.44 4.42 14.44 4.43 14.41"/><polygon points="8.47 14.42 6.94 14.41 6.93 14.44 8.46 14.44 8.47 14.42"/><path class="cls-1" d="M3.47,15.27a.31.31,0,0,0,.3-.16c0-.09-.06-.17-.2-.17a.33.33,0,0,0-.3.17C3.24,15.2,3.33,15.27,3.47,15.27Z"/><path class="cls-1" d="M7.38,15c-.13,0-.26.07-.28.16s.07.17.21.17a.27.27,0,0,0,.28-.16C7.61,15,7.52,15,7.38,15Z"/><path class="cls-1" d="M6.2,15.61a.28.28,0,0,0,.29-.16c0-.1-.07-.17-.2-.17a.31.31,0,0,0-.3.16c0,.1.07.17.21.17Z"/><path class="cls-1" d="M6.37,15c.14,0,.27-.07.29-.16s-.07-.16-.21-.16-.26.07-.28.16S6.23,15,6.37,15Z"/><path class="cls-1" d="M4.42,12.46c.13,0,.25-.06.27-.13s-.06-.14-.18-.14-.25.06-.27.13.06.14.18.14Z"/><path class="cls-1" d="M8.13,12.2a.27.27,0,0,0-.26.13c0,.08.07.14.2.14a.25.25,0,0,0,.25-.14C8.34,12.26,8.25,12.2,8.13,12.2Z"/><path class="cls-1" d="M7.07,12.74c.12,0,.24-.06.26-.14s-.07-.14-.19-.14a.26.26,0,0,0-.26.14c0,.07.06.14.19.14Z"/><path class="cls-1" d="M7.21,12.2a.26.26,0,0,0,.25-.13c0-.07-.06-.13-.19-.13S7,12,7,12.07s.06.13.19.13Z"/><path class="cls-1" d="M5.44,9.87c-.11,0-.21,0-.23.1s.06.1.17.1.22-.05.23-.1S5.55,9.87,5.44,9.87Z"/><path class="cls-1" d="M8.87,9.87a.26.26,0,0,0-.23.1c0,.06.07.11.18.11S9,10,9.05,10,9,9.87,8.87,9.87Z"/><path class="cls-1" d="M7.94,10.28c.11,0,.21,0,.23-.1s-.07-.11-.18-.11a.25.25,0,0,0-.23.11C7.75,10.23,7.83,10.28,7.94,10.28Z"/><path class="cls-1" d="M8,9.87c.11,0,.21,0,.23-.1s-.07-.1-.18-.1-.21,0-.22.1.06.1.17.1Z"/><path class="cls-1" d="M6.18,7.89s.05.07.15.07h.12l0-.11-.1,0c-.1,0-.19,0-.2.07Z"/><path class="cls-1" d="M9.61,7.83c-.1,0-.19,0-.19.07s.06.07.16.07.19,0,.19-.07S9.71,7.83,9.61,7.83Z"/><path class="cls-1" d="M9,8S8.94,8,8.84,8h0l0,.14h0C8.91,8.11,9,8.08,9,8Z"/><path class="cls-1" d="M8.64,8s0,.06.14.07l0-.14c-.09,0-.17,0-.18.07Z"/><path class="cls-1" d="M9.07,7.76S9,7.69,8.91,7.69h0l0,.13h0C9,7.83,9.06,7.79,9.07,7.76Z"/><path class="cls-1" d="M8.72,7.76s0,.06.14.06l0-.13C8.81,7.69,8.73,7.72,8.72,7.76Z"/><path class="cls-1" d="M37.1,52.16a.78.78,0,0,0-.69-.53c-.29,0-.44.24-.35.54a.78.78,0,0,0,.69.54A.38.38,0,0,0,37.1,52.16Z"/><path class="cls-1" d="M30.29,51.65a.42.42,0,0,0-.4.54.72.72,0,0,0,.65.54.42.42,0,0,0,.4-.55.7.7,0,0,0-.65-.53Z"/><path class="cls-1" d="M32.31,53.28a.75.75,0,0,0,.68.56.45.45,0,0,0,.26-.09l-.28-1a.68.68,0,0,0-.27-.07A.41.41,0,0,0,32.31,53.28Z"/><path class="cls-1" d="M33.37,53.27a.74.74,0,0,0-.4-.48l.28,1a.45.45,0,0,0,.12-.48Z"/><path class="cls-1" d="M31.77,51.11a.71.71,0,0,0,.65.53.59.59,0,0,0,.2,0l-.28-1a.58.58,0,0,0-.19,0,.39.39,0,0,0-.38.52Z"/><path class="cls-1" d="M32.8,51.11a.73.73,0,0,0-.46-.48l.28,1A.41.41,0,0,0,32.8,51.11Z"/><path class="cls-1" d="M33.23,41.43a.62.62,0,0,0-.56-.41h-.09l.25.81h.1a.3.3,0,0,0,.3-.42Z"/><path class="cls-1" d="M27.51,41.87a.33.33,0,0,0,.34-.42.57.57,0,0,0-.53-.41.33.33,0,0,0-.34.41A.57.57,0,0,0,27.51,41.87Z"/><path class="cls-1" d="M29,42.29a.61.61,0,0,0,.55.43.33.33,0,0,0,.33-.44.6.6,0,0,0-.55-.42A.33.33,0,0,0,29,42.29Z"/><path class="cls-1" d="M29.08,41a.31.31,0,0,0,.32-.41.56.56,0,0,0-.53-.39.31.31,0,0,0-.32.4.57.57,0,0,0,.53.4Z"/><path class="cls-1" d="M31,33.88a.27.27,0,0,0,.28-.36.57.57,0,0,0-.5-.35.26.26,0,0,0-.27.35A.53.53,0,0,0,31,33.88Z"/><path class="cls-1" d="M26,33.89a.28.28,0,0,0,.3-.35.47.47,0,0,0-.46-.35.29.29,0,0,0-.31.35A.49.49,0,0,0,26,33.89Z"/><path class="cls-1" d="M27.29,34.25a.5.5,0,0,0,.36.34l-.2-.68a.27.27,0,0,0-.16.34Z"/><path class="cls-1" d="M27.77,34.61a.28.28,0,0,0,.3-.36.52.52,0,0,0-.48-.36l-.14,0,.2.69Z"/><path class="cls-1" d="M26.94,32.84a.49.49,0,0,0,.29.31l-.17-.61A.26.26,0,0,0,26.94,32.84Z"/><path class="cls-1" d="M27.41,33.18a.27.27,0,0,0,.29-.34.5.5,0,0,0-.47-.34.48.48,0,0,0-.18,0l.18.61A.57.57,0,0,0,27.41,33.18Z"/><path class="cls-1" d="M29.11,27.6c.19,0,.3-.13.25-.29a.46.46,0,0,0-.43-.29c-.18,0-.3.13-.25.29A.46.46,0,0,0,29.11,27.6Z"/><path class="cls-1" d="M24.48,27.61c.19,0,.31-.13.28-.29a.43.43,0,0,0-.41-.29c-.18,0-.31.13-.27.29a.41.41,0,0,0,.4.29Z"/><path class="cls-1" d="M25.62,27.91a.43.43,0,0,0,.14.2l-.11-.39A.21.21,0,0,0,25.62,27.91Z"/><path class="cls-1" d="M26,28.2c.19,0,.31-.13.26-.3a.44.44,0,0,0-.42-.29.26.26,0,0,0-.23.11l.11.39A.47.47,0,0,0,26,28.2Z"/><path class="cls-1" d="M25.33,26.75a.21.21,0,0,0,.07.12l-.07-.23A.2.2,0,0,0,25.33,26.75Z"/><path class="cls-1" d="M25.74,27a.24.24,0,0,0,.26-.29.41.41,0,0,0-.41-.27c-.14,0-.24.06-.26.16l.07.24a.43.43,0,0,0,.34.16Z"/><path class="cls-1" d="M27.2,22.74c.17,0,.27-.11.23-.23a.4.4,0,0,0-.37-.23c-.16,0-.26.1-.22.23A.38.38,0,0,0,27.2,22.74Z"/><path class="cls-1" d="M23,22.75c.16,0,.27-.11.24-.23a.34.34,0,0,0-.34-.23c-.17,0-.27.1-.25.23A.35.35,0,0,0,23,22.75Z"/><path class="cls-1" d="M23.94,23a.38.38,0,0,0,.36.23h0l-.14-.47h0c-.16,0-.27.11-.24.24Z"/><path class="cls-1" d="M24.54,23a.4.4,0,0,0-.35-.23l.14.47C24.48,23.2,24.57,23.1,24.54,23Z"/><path class="cls-1" d="M23.72,22.07a.35.35,0,0,0,.34.22l-.13-.44c-.15,0-.24.1-.21.22Z"/><path class="cls-1" d="M24.06,22.29c.17,0,.27-.1.24-.22a.35.35,0,0,0-.35-.22h0l.13.44Z"/><path class="cls-1" d="M25.92,18.45a.34.34,0,0,0,.33.2c.15,0,.24-.09.21-.2a.38.38,0,0,0-.33-.19C26,18.26,25.88,18.35,25.92,18.45Z"/><path class="cls-1" d="M22.21,18.66c.15,0,.25-.09.23-.2a.32.32,0,0,0-.32-.19c-.15,0-.25.09-.22.19a.31.31,0,0,0,.31.2Z"/><path class="cls-1" d="M23.11,18.86a.32.32,0,0,0,.32.2c.15,0,.25-.09.22-.2a.33.33,0,0,0-.32-.2c-.15,0-.25.09-.22.2Z"/><path class="cls-1" d="M22.91,18.07a.33.33,0,0,0,.32.2c.15,0,.24-.09.22-.2a.34.34,0,0,0-.32-.19C23,17.88,22.89,18,22.91,18.07Z"/><polygon points="25.51 14.44 25.5 14.4 24.27 14.41 24.28 14.44 25.51 14.44"/><polygon points="20.3 14.44 21.77 14.44 21.76 14.41 20.29 14.42 20.3 14.44"/><path class="cls-1" d="M25,15.11a.33.33,0,0,0,.3.16c.14,0,.23-.07.2-.16a.32.32,0,0,0-.3-.17C25.05,14.94,25,15,25,15.11Z"/><path class="cls-1" d="M21.45,15.28c.14,0,.24-.07.22-.16a.29.29,0,0,0-.29-.17c-.14,0-.23.08-.21.17s.15.16.28.16Z"/><path class="cls-1" d="M22.27,15.45a.28.28,0,0,0,.29.16c.14,0,.23-.07.21-.17s-.16-.16-.29-.16S22.25,15.35,22.27,15.45Z"/><path class="cls-1" d="M22.11,14.79c0,.09.15.16.28.16s.23-.07.21-.16a.3.3,0,0,0-.29-.16c-.13,0-.23.07-.2.16Z"/><path class="cls-1" d="M24.07,12.33a.31.31,0,0,0,.27.13c.12,0,.21-.06.18-.14s-.14-.13-.26-.13S24.05,12.25,24.07,12.33Z"/><path class="cls-1" d="M20.7,12.47c.12,0,.21-.06.19-.14s-.13-.13-.25-.13-.21.06-.2.13A.26.26,0,0,0,20.7,12.47Z"/><path class="cls-1" d="M21.43,12.6c0,.08.14.14.26.14s.22-.07.2-.14-.14-.14-.27-.14S21.41,12.52,21.43,12.6Z"/><path class="cls-1" d="M21.3,12.07a.27.27,0,0,0,.26.13c.12,0,.2-.06.19-.13s-.14-.13-.26-.13S21.28,12,21.3,12.07Z"/><path class="cls-1" d="M23.15,10a.26.26,0,0,0,.23.1c.12,0,.19-.05.17-.1s-.12-.1-.23-.1-.19,0-.17.1Z"/><path class="cls-1" d="M19.94,10.08c.11,0,.19-.05.18-.11s-.11-.1-.22-.1-.19.05-.18.1S19.83,10.08,19.94,10.08Z"/><path class="cls-1" d="M20.6,10.18c0,.06.11.1.23.1s.19,0,.17-.1-.11-.11-.23-.11S20.58,10.12,20.6,10.18Z"/><path class="cls-1" d="M20.49,9.77c0,.06.12.1.23.1s.19,0,.18-.1-.12-.1-.23-.1S20.48,9.72,20.49,9.77Z"/><path d="M-3.65,50.66a.59.59,0,0,1,.26-.07.4.4,0,0,1,.38.53.7.7,0,0,1-.65.52.45.45,0,0,1-.26-.08l-.37,1.28a.67.67,0,0,1,.35-.12.41.41,0,0,1,.39.56.75.75,0,0,1-.67.56.39.39,0,0,1-.32-.15l-.27.93h4l1-4.73H-3.43l-.22.77Zm1.48,1.52a.69.69,0,0,1,.64-.53.41.41,0,0,1,.4.54.7.7,0,0,1-.64.54A.41.41,0,0,1-2.17,52.18Z"/><path d="M-1.51,43.32H2.07l.75-3.63H-.45l-1.06,3.63Zm1.31-1a.61.61,0,0,1-.55.43.33.33,0,0,1-.33-.44.61.61,0,0,1,.55-.42.33.33,0,0,1,.33.43Zm1.12-.84A.56.56,0,0,1,1.44,41a.32.32,0,0,1,.34.41.57.57,0,0,1-.53.42A.33.33,0,0,1,.92,41.45Zm-.71-.82a.56.56,0,0,1-.53.4.31.31,0,0,1-.32-.41.57.57,0,0,1,.53-.39.31.31,0,0,1,.32.4Z"/><path d="M1.65,32.52a.25.25,0,0,1,.17.32.48.48,0,0,1-.36.33l-.21.72a.28.28,0,0,1,.22.36.51.51,0,0,1-.43.36l-.15.51H3.77l.7-3.08H1.79l-.14.48Zm.81,1a.49.49,0,0,1,.47-.35.28.28,0,0,1,.3.35.49.49,0,0,1-.46.35A.29.29,0,0,1,2.46,33.54Z"/><path d="M.79,26.08H-.76l-.94,2.53H0ZM-.35,27.6c-.19,0-.3-.13-.25-.29A.47.47,0,0,1-.17,27c.19,0,.3.13.25.29A.46.46,0,0,1-.35,27.6Z"/><path d="M3.39,26.55a.23.23,0,0,1,0,.2.35.35,0,0,1-.16.2l-.21.72a.22.22,0,0,1,.09.24.46.46,0,0,1-.23.25l-.13.46H5.31l.55-2.53H3.53l-.14.46Zm.62.77a.41.41,0,0,1,.4-.29c.19,0,.31.13.28.29a.43.43,0,0,1-.41.29C4.09,27.61,4,27.48,4,27.32Z"/><path d="M1.87,22.6a.43.43,0,0,1-.31.14c-.16,0-.26-.11-.22-.23a.38.38,0,0,1,.36-.23.22.22,0,0,1,.23.14l.27-.88H.79l-.74,2H1.58Z"/><path d="M4.77,21.85h0c.16,0,.27.1.24.22a.36.36,0,0,1-.35.22H4.64l-.14.47h.08c.17,0,.27.11.24.24a.36.36,0,0,1-.36.23H4.37l-.1.34H6.39l.41-2H4.85l-.08.3Zm.78.67a.36.36,0,0,1,.35-.23c.16,0,.27.1.24.23a.35.35,0,0,1-.35.23C5.63,22.75,5.52,22.64,5.55,22.52Z"/><path d="M3.3,18l.12-.41H2.25l-.64,1.71H2.89Zm-.45.42a.37.37,0,0,1-.34.2c-.15,0-.24-.09-.21-.2a.38.38,0,0,1,.34-.19C2.79,18.26,2.88,18.35,2.85,18.45Z"/><path d="M5.66,18.79v.07a.25.25,0,0,1,0,.07l-.12.41H7.42l.35-1.72H6Zm.67-.33a.3.3,0,0,1,.31-.19c.15,0,.25.09.23.19a.33.33,0,0,1-.32.2c-.15,0-.25-.09-.22-.2Z"/><path d="M4.42,14.44H3.25l-.53,1.4H4Zm-.65.67a.31.31,0,0,1-.3.16c-.14,0-.23-.07-.2-.16a.33.33,0,0,1,.3-.17C3.71,14.94,3.8,15,3.77,15.11Z"/><path d="M6.52,15.85H8.17l.3-1.42H6.93l-.41,1.41Zm.58-.73A.28.28,0,0,1,7.38,15c.14,0,.23.08.21.17a.27.27,0,0,1-.28.16C7.17,15.28,7.08,15.21,7.1,15.12Z"/><path d="M4.89,12.92l.37-1.16h-1l-.45,1.17Zm-.2-.59c0,.07-.14.13-.27.13s-.2-.06-.18-.14.14-.13.27-.13.2.06.18.14Z"/><path d="M7.37,12.93H8.88l.24-1.16H7.71Zm.5-.6a.27.27,0,0,1,.26-.13c.12,0,.21.06.19.13a.26.26,0,0,1-.26.14C7.94,12.47,7.85,12.41,7.87,12.33Z"/><path d="M6,9.53H5l-.35.89h1L6,9.53ZM5.61,10s-.12.1-.23.1S5.19,10,5.21,10s.12-.1.23-.1S5.63,9.91,5.61,10Z"/><path d="M8.1,10.43H9.5l.19-.89H8.36ZM8.64,10a.26.26,0,0,1,.23-.1c.11,0,.19.05.18.1a.25.25,0,0,1-.23.11c-.11,0-.19-.05-.18-.11Z"/><path d="M6.44,8H6.33c-.1,0-.17,0-.15-.07s.1-.07.2-.07l.1,0,.08-.25H5.74L5.5,8.2h.86L6.44,8Z"/><path d="M8.9,7.69h0c.1,0,.17,0,.16.07s-.09.07-.19.07h0l0,.15h0C8.94,8,9,8,9,8s-.1.07-.19.07h0l0,.1H10l.13-.61H8.93Zm.71.14c.1,0,.17,0,.16.07S9.68,8,9.58,8s-.17,0-.16-.07S9.51,7.83,9.61,7.83Z"/><path d="M37.88,49.87H35.34l1.48,4.73h2.79Zm-1.13,2.84a.78.78,0,0,1-.69-.54.37.37,0,0,1,.35-.54.78.78,0,0,1,.69.53.38.38,0,0,1-.35.55Z"/><path d="M33,53.84a.75.75,0,0,1-.68-.56.41.41,0,0,1,.39-.56.68.68,0,0,1,.27.07l-.35-1.19a.42.42,0,0,1-.2,0,.71.71,0,0,1-.65-.52.4.4,0,0,1,.38-.53.65.65,0,0,1,.19,0l-.22-.74H28.6l1,4.73H33.5l-.25-.87a.45.45,0,0,1-.26.09Zm-2.45-1.11a.7.7,0,0,1-.65-.54.42.42,0,0,1,.4-.54.71.71,0,0,1,.65.53.42.42,0,0,1-.4.55Z"/><path d="M32.58,41h.09a.62.62,0,0,1,.56.41.3.3,0,0,1-.3.42h-.1l.46,1.47h2.36l-1.34-3.63H32.15L32.58,41Z"/><path d="M29.14,39.69H26l.75,3.63h3.5l-1.06-3.63Zm-1.63,2.18a.57.57,0,0,1-.53-.42.33.33,0,0,1,.34-.41.57.57,0,0,1,.53.41A.34.34,0,0,1,27.51,41.87Zm1-1.24a.31.31,0,0,1,.32-.4.56.56,0,0,1,.53.39.31.31,0,0,1-.32.41.57.57,0,0,1-.53-.4Zm1,2.09a.61.61,0,0,1-.55-.43.33.33,0,0,1,.33-.43.6.6,0,0,1,.55.42.33.33,0,0,1-.33.44Z"/><path d="M30.73,35.11h2.34L31.94,32H29.77Zm.07-1.94a.57.57,0,0,1,.5.35.27.27,0,0,1-.28.36.54.54,0,0,1-.49-.36.26.26,0,0,1,.27-.35Z"/><path d="M27.65,34.59a.5.5,0,0,1-.36-.34.27.27,0,0,1,.16-.34l-.22-.76a.49.49,0,0,1-.29-.31.25.25,0,0,1,.11-.29L26.91,32H24.3L25,35.13h2.82l-.16-.53ZM26,33.89a.49.49,0,0,1-.47-.35.29.29,0,0,1,.31-.35.47.47,0,0,1,.46.35A.28.28,0,0,1,26,33.89Z"/><path d="M28.7,28.61h1.76l-.93-2.53H27.91ZM28.93,27a.46.46,0,0,1,.43.29c.05.16-.06.29-.25.29a.47.47,0,0,1-.43-.29c-.05-.16.06-.29.25-.29Z"/><path d="M25.76,28.11a.43.43,0,0,1-.14-.2.21.21,0,0,1,0-.19l-.25-.85a.29.29,0,0,1-.07-.12.24.24,0,0,1,0-.12l-.16-.54H22.91l.54,2.53h2.46l-.15-.51Zm-1.28-.5a.41.41,0,0,1-.4-.29c0-.16.08-.29.27-.29a.43.43,0,0,1,.41.29C24.79,27.48,24.67,27.61,24.48,27.61Z"/><path d="M27.11,23.53h1.6l-.74-2H26.49l.62,2Zm-.05-1.25a.41.41,0,0,1,.37.23c0,.12-.06.23-.23.23a.4.4,0,0,1-.36-.23c0-.12.06-.23.22-.23Z"/><path d="M24.33,23.21h0a.38.38,0,0,1-.36-.23c0-.13.08-.24.24-.24h0l-.13-.45a.35.35,0,0,1-.34-.22c0-.12.06-.21.21-.22l-.09-.3H22l.4,2h2.05ZM23,22.75a.36.36,0,0,1-.35-.23c0-.13.09-.23.25-.23a.34.34,0,0,1,.34.23c0,.12-.08.23-.24.23Z"/><path d="M25.8,19.33h1.35l-.64-1.71H25.27Zm.33-1.07a.38.38,0,0,1,.33.19c0,.11-.06.2-.21.2a.35.35,0,0,1-.33-.19c0-.11.06-.2.21-.2Z"/><path d="M22.7,17.63H21l.35,1.72H23.2Zm-.49,1a.31.31,0,0,1-.31-.2c0-.1.07-.19.22-.19a.32.32,0,0,1,.32.19C22.46,18.57,22.36,18.66,22.21,18.66Z"/><path d="M24.72,15.84H26l-.53-1.4H24.28l.44,1.4Zm.47-.9a.32.32,0,0,1,.3.17c0,.09-.06.16-.2.16a.33.33,0,0,1-.3-.16C25,15,25.05,14.94,25.19,14.94Z"/><path d="M21.76,14.44H20.3l.29,1.42h1.59l-.42-1.41Zm-.3.84c-.14,0-.27-.07-.29-.16s.07-.17.21-.17a.29.29,0,0,1,.29.17C21.69,15.21,21.59,15.28,21.46,15.28Z"/><path d="M23.8,12.92H25l-.44-1.17H23.44l.36,1.16Zm.46-.73c.12,0,.24.06.26.13s-.06.14-.18.14a.31.31,0,0,1-.27-.13C24.05,12.25,24.13,12.19,24.26,12.19Z"/><path d="M21,11.76H19.64l.24,1.16h1.44Zm-.28.71a.26.26,0,0,1-.26-.14c0-.07.08-.13.2-.13s.24.06.25.13S20.82,12.47,20.7,12.47Z"/><path d="M23,10.42h1.07l-.35-.89h-1Zm.3-.55c.11,0,.22,0,.23.1s-.05.1-.16.1a.27.27,0,0,1-.24-.1C23.13,9.91,23.21,9.87,23.32,9.87Z"/><path d="M20.33,9.54H19.08l.18.89h1.33Zm-.39.54c-.11,0-.21-.05-.22-.11s.06-.1.17-.1.22.05.23.1S20.05,10.08,19.94,10.08Z"/><path d="M22.39,7.82c.09,0,.18,0,.2.07s-.06.07-.16.07a.26.26,0,0,1-.19-.06l.09.3h.94L23,7.59h-.88l.09.3s.06-.07.16-.07Z"/><path d="M19.91,8.11c-.08,0-.14,0-.15-.07s0-.06.11-.07l0-.15c-.07,0-.13,0-.14-.06s0-.06.1-.07l0-.1H18.65l.12.62h1.17ZM19.18,8c-.09,0-.18,0-.19-.07s.06-.07.16-.07.19,0,.2.07S19.28,8,19.18,8Z"/><polygon points="8.12 7.46 8.97 7.46 9.13 6.91 8.8 5.4 8.12 7.46"/><path d="M8.08,7.59l-.18.62-.06.2L7.67,9l-.13.44,0,.08h0l-.26.89h0l0,.11v0L7,11.17l-.17.58h.84l.18-.58.17-.62v0l0-.1h0l.26-.89h0l0-.09L8.52,9l.17-.6.06-.2,0-.1c-.09,0-.15,0-.14-.07S8.73,8,8.82,8l0-.15c-.09,0-.15,0-.14-.06s.09-.07.18-.07l0-.1,0-.13H8.12l0,.13Zm.09,2.59c0,.06-.12.1-.23.1s-.19,0-.18-.1A.25.25,0,0,1,8,10.07c.11,0,.19,0,.18.11Zm-.08-.51c.11,0,.19.05.18.1s-.12.1-.23.1-.19,0-.17-.1S8,9.67,8.09,9.67Z"/><path d="M7.71,11.76H6.87l-.27.9-.07.26h0l0,.1v0l-.19.65-.21.72v0h0l-.41,1.41h0l0,.1-.2.69-.28,1v0h0l-.5,1.71h0l0,.07-.22.74L4,21.42l0,.13-.58,2,0,.08-.24.84-.47,1.61v0l-.74,2.53-.05.16-.26.89L1,31.87.94,32,0,35.12,0,35.34l-.36,1.21-.81,2.78-.1.35-1.06,3.63-.17.58-.41,1.41-1.16,4-.18.63-1.38,4.72-.28.93-.38,1.34-.54,1.84.21,2.18,1.17-4h0l.39-1.34.27-.92.27-.93a.49.49,0,0,1-.07-.42.77.77,0,0,1,.32-.43l.38-1.28A.42.42,0,0,1-4,51.11a.73.73,0,0,1,.39-.45l.22-.77.19-.63,1.16-4,.41-1.41.16-.57,1.06-3.63.11-.36.81-2.78.36-1.21.06-.22L1,34.61H1a.28.28,0,0,1-.3-.36.53.53,0,0,1,.49-.36h.07l.21-.72h-.1c-.22,0-.35-.15-.3-.34a.5.5,0,0,1,.47-.34l.12,0L1.79,32l.05-.17.64-2.2.26-.89,0-.16.13-.46a.43.43,0,0,1-.19,0c-.19,0-.31-.13-.27-.3a.44.44,0,0,1,.42-.29.31.31,0,0,1,.19.06l.2-.72A.41.41,0,0,1,3,27c-.19,0-.31-.13-.26-.29a.41.41,0,0,1,.4-.27.29.29,0,0,1,.22.08l.14-.46v0L4,24.45l.24-.84,0-.07.1-.34A.18.18,0,0,1,4.23,23a.35.35,0,0,1,.27-.22l.14-.47c-.13,0-.2-.11-.17-.21a.35.35,0,0,1,.3-.22l.08-.3,0-.13.37-1.27.22-.74,0-.07.12-.41a.36.36,0,0,1-.29.13c-.15,0-.25-.09-.22-.2a.33.33,0,0,1,.32-.2.23.23,0,0,1,.23.13L6,17.63H6v0l.29-1,.2-.69,0-.1h0l.41-1.41h0v0l.21-.72L7.34,13v0l0-.09h0l.34-1.17ZM5.63,17.88c.15,0,.25.09.22.19a.32.32,0,0,1-.31.2c-.15,0-.25-.09-.22-.2A.32.32,0,0,1,5.63,17.88Zm.86-2.43a.29.29,0,0,1-.29.17c-.14,0-.23-.08-.21-.18a.31.31,0,0,1,.3-.16c.13,0,.23.07.2.17Zm.17-.66a.3.3,0,0,1-.29.16c-.13,0-.23-.07-.2-.16s.15-.16.28-.16.23.07.21.16ZM7,12.07c0-.08.13-.13.25-.13s.21.06.19.13-.13.13-.25.13S7,12.14,7,12.07Zm.31.53c0,.08-.14.14-.26.14s-.21-.07-.19-.14a.26.26,0,0,1,.26-.14C7.26,12.46,7.35,12.52,7.33,12.6Z"/><path d="M21.66,11.17l-.18-.62v0l0-.11h0l-.26-.88h-.85l.26.89h0l0,.1v0l.18.62.17.58h.85Zm-1.17-1.4s.07-.1.18-.1.21,0,.22.1-.06.1-.17.1-.21,0-.23-.1Zm.34.51c-.12,0-.22,0-.23-.1s.06-.11.17-.11.22,0,.23.11S20.94,10.28,20.83,10.28Z"/><path d="M35,56.88h0l-.39-1.33-.27-.93L33,49.89l-.18-.63-1.16-4-.41-1.41-.17-.58L30,39.68l-.11-.35-.81-2.77-.35-1.22-.07-.22L27.75,32l0-.17-.65-2.2-.26-.88,0-.17L26,26.09v0l-.47-1.61-.25-.84,0-.07-.58-2,0-.13-.37-1.26-.21-.74,0-.08h0l-.5-1.71h0v0l-.28-1L23.05,16l0-.1h0l-.41-1.41h0v0l-.21-.72L22.2,13h0l0-.1h0l-.34-1.16H21l.34,1.17h0l0,.1h0l.19.65.21.72v0h0l.41,1.41h0l0,.1.2.69.28,1v0h0l.5,1.71h0l0,.08.22.74.36,1.26,0,.13.09.3h0a.36.36,0,0,1,.35.22c0,.12-.07.22-.23.22h0l.13.46a.37.37,0,0,1,.35.23c0,.12-.06.22-.21.23l.09.33,0,.07.25.84.47,1.62v0l.16.55a.26.26,0,0,1,.26-.17.42.42,0,0,1,.41.28c0,.15-.08.28-.26.28a.44.44,0,0,1-.34-.16l.25.85a.27.27,0,0,1,.24-.11.46.46,0,0,1,.42.29.25.25,0,0,1-.27.31.48.48,0,0,1-.28-.1l.15.51.05.17.26.88.64,2.2.05.17.15.51a.29.29,0,0,1,.17,0,.5.5,0,0,1,.47.34.27.27,0,0,1-.29.34.57.57,0,0,1-.18,0l.22.76.14,0a.52.52,0,0,1,.48.36.28.28,0,0,1-.29.36h-.13l.16.52.06.22.36,1.22L29,39.33l.1.36,1.06,3.63.17.57.41,1.41,1.16,4,.18.63.22.74a.73.73,0,0,1,.46.48.41.41,0,0,1-.18.49L33,52.79a.74.74,0,0,1,.4.48.45.45,0,0,1-.12.48l.25.87.28.93.38,1.33h0l1.18,4,.21-2.21L35,56.88ZM21.3,12.07c0-.07.07-.13.19-.13s.24.06.26.13-.07.13-.19.13a.27.27,0,0,1-.26-.13Zm.39.67c-.12,0-.24-.06-.26-.14s.07-.14.19-.14.25.06.27.14S21.82,12.74,21.69,12.74Zm.42,2c0-.09.07-.16.2-.16a.3.3,0,0,1,.29.16c0,.09-.07.16-.21.16s-.26-.07-.28-.16Zm.45.83a.29.29,0,0,1-.29-.17c0-.1.07-.17.21-.17s.27.07.29.16S22.7,15.62,22.56,15.62Zm.35,2.46c0-.11.07-.2.22-.2a.34.34,0,0,1,.32.19c0,.11-.07.2-.22.2A.34.34,0,0,1,22.91,18.08Zm.52,1a.32.32,0,0,1-.32-.2c0-.11.07-.2.22-.2a.33.33,0,0,1,.32.2C23.68,19,23.58,19.06,23.43,19.06Z"/><polygon points="19.9 5.4 19.65 7.19 19.72 7.46 20.57 7.46 19.9 5.4"/><path d="M21.16,9.45,21,9l-.18-.6-.06-.2-.18-.62,0-.13h-.85l.05.13,0,.1h.06c.1,0,.19,0,.2.07s-.07.07-.16.07h-.06l.05.15h0c.1,0,.19,0,.2.07s-.06.07-.16.07h0l0,.1.06.2.17.6.13.44,0,.09h.85l0-.08Z"/><path class="cls-1" d="M7.22,5.47l-.62,2,0,.14h0l-.08.25h0l0,.11-.09.25-.06.21h0l-.06.18L6.11,9,6,9.45H6l0,.08H6l-.28.89,0,.11h0v0l-.19.62-.18.58h0l-.37,1.16h0l0,.1v0l-.16.49,0,.16h0l-.22.72L4,15.84,4,16H4l-.22.69h0l-.3,1h0L3.3,18l-.41,1.3,0,.09L2.69,20l-.06.17h0l-.39,1.27,0,.12h0l-.27.88h0a.14.14,0,0,1,0,.09.24.24,0,0,1-.06.09l-.29.93,0,.08-.18.57-.09.26h0l-.5,1.61v0L0,28.61l0,.17h0l-.28.88L-1,31.87h0l0,.05,0,.11-.66,2.12-.31,1h0l-.06.23-.39,1.21-.86,2.78-.11.35L-3.88,41h0l-.26.82h0l-.45,1.46-.19.58-.43,1.41-1.24,4-.2.62-.63,2-.16.52-.68,2.18-.29.94-.42,1.33-.57,1.84h2.55l.53-1.84.39-1.33.28-.93h0l1.38-4.72h0l.18-.63h0l1.16-4,.41-1.41.17-.58h0l1.06-3.63h0l.1-.35.81-2.78L0,35.34,0,35.12H0L.94,32,1,31.87H1l.64-2.2.26-.88h0l.05-.16.74-2.53v0l.47-1.61h0l.24-.83h0l0-.07h0l.59-2,0-.13.37-1.26h0l.22-.73,0-.08h0l.5-1.71v0h0l.28-1h0l.2-.69h0v0l0-.07h0l.42-1.44.21-.72h0L6.49,13v0l0-.09h0l.07-.26.27-.9h0L7,11.17l.18-.62v0h0l0-.11h0l.26-.89,0-.08h0L7.67,9h0l.17-.59h0l.06-.2.18-.62,0-.13.58-2Z"/><path d="M-6.8,58.79H-9.5L1.82,22.55a.21.21,0,0,0,0-.06v-.08h0l5.31-17H8.8L-6.8,58.79Zm-2.51-.14h2.4L8.61,5.54H7.27L2,22.42a.21.21,0,0,1,0,.11.41.41,0,0,1-.06.11l-11.24,36Z"/><path class="cls-1" d="M37.52,56.88l-.41-1.33-.29-.94-1.48-4.73-.19-.62h0l-1.24-4-.44-1.41-.18-.58-.46-1.47h0L32.58,41l-.42-1.35-.11-.35-.87-2.78-.38-1.21-.07-.23h0l-1-3.08h0l-.05-.16h0L29,29.67l-.27-.88h0l-.06-.17-.79-2.53v0l-.51-1.61h0l-.26-.84h0l0-.08-.62-2h0l0-.12-.4-1.26h0l-.23-.73,0-.09h0l-.53-1.71h0l-.31-1h0L24.75,16h0l0-.1h0l-.45-1.43L24,13.69h0l-.2-.65v0l0-.1h0l-.36-1.16h0l-.18-.58-.2-.62v0h0l0-.11-.28-.89h0l0-.08h0L22.58,9h0l-.18-.59h0l-.07-.21-.09-.3h0l-.09-.29h0l0-.13-.62-2H20l.58,2,0,.13.18.62.06.2h0L21,9l.12.44h0l0,.08h0l.26.89,0,.1h0v0l.18.62.17.58h0l.34,1.16h0l0,.09v0l.19.65.21.72L23,15.85h0l0,.1h0l.21.69h0l.28,1h0v0l.5,1.71,0,.08.21.73h0l.37,1.26,0,.13.58,2,0,.07h0l.25.84h0L26,26.06v0l.75,2.53,0,.16.26.89.64,2.2h0l.05.17.9,3.08.07.22.35,1.21.81,2.78.11.35,1.06,3.63.17.58.41,1.41,1.16,4h0l.18.63h0l1.38,4.72h0l.27.93L35,56.88l.54,1.84H38.1l-.58-1.84Z"/><path d="M38.19,58.79H35.5L19.9,5.4h1.63L38.2,58.79Zm-2.59-.14H38L22.18,8h0V7.89l-.74-2.35H20.09L35.6,58.65Z"/><path class="cls-1" d="M22.43,8c.1,0,.17,0,.16-.07s-.11-.07-.2-.07-.16,0-.16.07h0A.32.32,0,0,0,22.43,8Z"/><path class="cls-1" d="M22.23,7.89h0Z"/><path class="cls-1" d="M19.18,8c.1,0,.18,0,.17-.07s-.1-.07-.2-.07-.17,0-.16.07.09.07.19.07Z"/><path class="cls-1" d="M19.76,8s.07.06.15.07l0-.14C19.8,8,19.75,8,19.76,8Z"/><path class="cls-1" d="M20,8.11c.1,0,.17,0,.16-.07S20,8,19.92,8h-.05l0,.14Z"/><path class="cls-1" d="M19.69,7.76s.07,0,.14.06l0-.13c-.06,0-.11,0-.1.07Z"/><path class="cls-1" d="M19.89,7.83c.09,0,.17,0,.15-.07s-.09-.07-.19-.07h-.06l0,.13Z"/><polygon points="38.2 58.79 35.33 58.8 35.34 60.93 38.2 60.93 38.2 58.79"/><rect class="cls-1" x="28.06" y="34.66" width="30.29" height="44.77" rx="3.06"/><path d="M55.28,35.31a2.41,2.41,0,0,1,2.41,2.41V76.36a2.41,2.41,0,0,1-2.41,2.41H31.12a2.41,2.41,0,0,1-2.41-2.41V37.72a2.41,2.41,0,0,1,2.41-2.41H55.28m0-1.31H31.12a3.73,3.73,0,0,0-3.72,3.72V76.36a3.72,3.72,0,0,0,3.72,3.72H55.28A3.72,3.72,0,0,0,59,76.36V37.72A3.73,3.73,0,0,0,55.28,34Z"/><rect class="cls-1" x="32.01" y="37.95" width="22.39" height="8.73" rx="2.58"/><path class="cls-3" d="M51.82,38.61a1.93,1.93,0,0,1,1.92,1.92v3.58A1.93,1.93,0,0,1,51.82,46H34.58a1.93,1.93,0,0,1-1.92-1.92V40.53a1.93,1.93,0,0,1,1.92-1.92H51.82m0-1.32H34.58a3.24,3.24,0,0,0-3.23,3.24v3.58a3.23,3.23,0,0,0,3.23,3.23H51.82a3.23,3.23,0,0,0,3.23-3.23V40.53a3.24,3.24,0,0,0-3.23-3.24Z"/><circle class="cls-4" cx="34.84" cy="61.65" r="3.49"/><circle class="cls-4" cx="43.2" cy="61.65" r="3.49"/><circle class="cls-4" cx="51.56" cy="61.65" r="3.49"/><circle class="cls-4" cx="34.84" cy="52.43" r="3.49"/><circle class="cls-4" cx="43.2" cy="52.43" r="3.49"/><circle class="cls-4" cx="51.56" cy="52.43" r="3.49"/><rect class="cls-5" x="34.14" y="39.58" width="3.64" height="1.21"/><rect class="cls-5" x="34.14" y="40.79" width="1.21" height="3.03"/><rect class="cls-5" x="34.14" y="43.82" width="3.64" height="1.21"/><rect class="cls-5" x="39.6" y="39.58" width="2.43" height="1.21"/><rect class="cls-5" x="38.99" y="40.79" width="1.21" height="4.24"/><rect class="cls-5" x="41.42" y="40.79" width="1.21" height="4.24"/><rect class="cls-5" x="40.2" y="42.61" width="1.21" height="1.21"/><rect class="cls-5" x="43.84" y="39.58" width="1.21" height="4.24"/><rect class="cls-5" x="43.84" y="43.82" width="3.64" height="1.21"/><rect class="cls-5" x="48.69" y="39.58" width="3.64" height="1.21"/><rect class="cls-5" x="48.69" y="40.79" width="1.21" height="3.03"/><rect class="cls-5" x="48.69" y="43.82" width="3.64" height="1.21"/><path class="cls-3" d="M21.5,4.55l-4.7-.47-4.24-.42-6-.6V6.84l4.71.57V28.7l1.29.13,4.24.42,1.53.15V8.27l3.17.38L23,8.84V4.7Zm0,2.87-4.7-.6V27.91l-4.24-.55V6.27L7.74,5.64V4.7l4.82.51,4.24.44,4.7.5Z"/><polygon class="cls-5" points="21.5 6.15 21.5 7.42 16.8 6.82 16.8 27.91 12.56 27.36 12.56 6.27 7.74 5.64 7.74 4.7 12.56 5.21 16.8 5.66 21.5 6.15"/><path class="cls-3" d="M57.35,27.9a13.85,13.85,0,0,0-2.65-7.26,6.28,6.28,0,0,0-1.64-1.48,7.11,7.11,0,0,0,1.75-1.38,7.91,7.91,0,0,0,2.1-5.43,7.75,7.75,0,0,0-3.67-6.71,6.79,6.79,0,0,0-2.64-.9h0l-1.64,0-1.22,0-1.29,0-3.86.06-1.3,0V16.82h-.87v4.35h.87v8.37h1.3l1.59,0,2.27-.05,1.29,0V20.59a2.94,2.94,0,0,1,2.73,2.56v6.23H51.5l4.23-.07,1.71,0C57.43,28.8,57.4,28.34,57.35,27.9ZM51.5,28V22.31a3.42,3.42,0,0,0-1.06-1.46,4.83,4.83,0,0,0-2.73-1.07h0l-.46,0a5.23,5.23,0,0,0-.81.06v8.27l-2.2,0-1.66,0V20h-1.3V17.86h1.3v-12l3.71-.07h.15l1,0h.28l1.65,0a6.94,6.94,0,0,1,5.8,7,7.2,7.2,0,0,1-1.73,4.74,6.57,6.57,0,0,1-1.37,1.21h0s0,0,0,0v0h0a1.31,1.31,0,0,0-.08.48,1.37,1.37,0,0,0,.07.45,1.56,1.56,0,0,0,.39.74s0,.05.06.06a11.93,11.93,0,0,1,3.17,7.5Z"/><path class="cls-5" d="M55.66,27.92a11.93,11.93,0,0,0-3.17-7.5s0,0-.06-.06a1.56,1.56,0,0,1-.39-.74,1.37,1.37,0,0,1-.07-.45,1.31,1.31,0,0,1,.08-.48h0v0s0,0,0,0h0a6.57,6.57,0,0,0,1.37-1.21,7.2,7.2,0,0,0,1.73-4.74,6.94,6.94,0,0,0-5.8-7l-1.65,0h-.28l-1,0h-.15l-3.71.07v12h-1.3V20h1.3v8.17l1.66,0,2.2,0V19.82a5.23,5.23,0,0,1,.81-.06l.46,0h0a4.83,4.83,0,0,1,2.73,1.07,3.42,3.42,0,0,1,1.06,1.46V28Zm-7.95-10a3.56,3.56,0,0,1-.8.08l-.49,0V7.08l.49,0a3.57,3.57,0,0,1,.8.09,5.07,5.07,0,0,1,3.79,4.17,6.05,6.05,0,0,1,.11,1.21,6.09,6.09,0,0,1-.11,1.22A5.07,5.07,0,0,1,47.71,17.91Z"/><path class="cls-3" d="M51.5,11.31a5.07,5.07,0,0,0-3.79-4.17,3.57,3.57,0,0,0-.8-.09l-.49,0V18l.49,0a3.56,3.56,0,0,0,.8-.08,5.07,5.07,0,0,0,3.79-4.17,6.09,6.09,0,0,0,.11-1.22A6.05,6.05,0,0,0,51.5,11.31Zm-3.79,5.24V8.64a4,4,0,0,1,2.67,3.95A4,4,0,0,1,47.71,16.55Z"/><path class="cls-3" d="M30.89,11.24l-3.26-.33-2.92-.29-4.15-.42v2.62l3.25.39V27.92l.9.09,2.92.3,1.06.1V13.81l2.2.26,1.05.13V11.34Zm0,2-3.26-.41V27.38L24.71,27V12.42L21.38,12v-.65l3.33.35,2.92.31,3.26.34Z"/><polygon class="cls-5" points="30.89 12.34 30.89 13.22 27.63 12.81 27.63 27.38 24.71 27 24.71 12.42 21.38 11.99 21.38 11.34 24.71 11.69 27.63 12 30.89 12.34"/><path class="cls-3" d="M34.5,15C32,15,30,17.91,30,21.5S32,28,34.5,28,39,25.09,39,21.5,37,15,34.5,15Zm0,12c-2.1,0-3.81-2.46-3.81-5.5S32.4,16,34.5,16s3.81,2.46,3.81,5.5S36.6,27,34.5,27Z"/><path class="cls-5" d="M34.5,16c-2.1,0-3.81,2.46-3.81,5.5S32.4,27,34.5,27s3.81-2.46,3.81-5.5S36.6,16,34.5,16Zm-.06,9.17c-1.47,0-2.66-1.72-2.66-3.83S33,17.5,34.44,17.5s2.65,1.72,2.65,3.84S35.9,25.17,34.44,25.17Z"/><path class="cls-3" d="M34.44,17.5c-1.47,0-2.66,1.72-2.66,3.84s1.19,3.83,2.66,3.83,2.65-1.72,2.65-3.83S35.9,17.5,34.44,17.5Zm-.08,7.32c-1.3,0-2.36-1.52-2.36-3.41S33.06,18,34.36,18s2.36,1.53,2.36,3.41S35.67,24.82,34.36,24.82Z"/></svg>